{
  "accessors": [
    {
      "bufferView": 2,
      "componentType": 5126,
      "count": 298,
      "max": [
        0.3746306300163269,
        0.3746306598186493,
        6.697317123413086
      ],
      "min": [
        -0.3746306300163269,
        -0.3746306300163269,
        -9.233582496643066
      ],
      "type": "VEC3"
    },
    {
      "bufferView": 2,
      "byteOffset": 3576,
      "componentType": 5126,
      "count": 298,
      "max": [
        0.9999232292175293,
        0.9999232292175293,
        1.0
      ],
      "min": [
        -0.9999232292175293,
        -0.9999232292175293,
        -0.19898658990859985
      ],
      "type": "VEC3"
    },
    {
      "bufferView": 3,
      "componentType": 5126,
      "count": 298,
      "max": [
        1.0,
        1.0,
        0.33361580967903137,
        1.0
      ],
      "min": [
        -1.0,
        -1.0,
        -0.283789724111557,
        1.0
      ],
      "type": "VEC4"
    },
    {
      "bufferView": 1,
      "componentType": 5126,
      "count": 298,
      "max": [
        0.46894732117652893,
        0.9922655820846558
      ],
      "min": [
        0.2965933084487915,
        0.004933834075927734
      ],
      "type": "VEC2"
    },
    {
      "bufferView": 0,
      "componentType": 5125,
      "count": 1440,
      "type": "SCALAR"
    },
    {
      "bufferView": 2,
      "byteOffset": 7152,
      "componentType": 5126,
      "count": 621,
      "max": [
        0.45498335361480713,
        0.4549834728240967,
        -9.233580589294434
      ],
      "min": [
        -0.45498335361480713,
        -0.4549833834171295,
        -13.05176830291748
      ],
      "type": "VEC3"
    },
    {
      "bufferView": 2,
      "byteOffset": 14604,
      "componentType": 5126,
      "count": 621,
      "max": [
        0.9999487400054932,
        0.9999487400054932,
        0.9602349996566772
      ],
      "min": [
        -0.9999487400054932,
        -0.9999487400054932,
        -0.9663383364677429
      ],
      "type": "VEC3"
    },
    {
      "bufferView": 3,
      "byteOffset": 4768,
      "componentType": 5126,
      "count": 621,
      "max": [
        1.0,
        1.0,
        0.2559739649295807,
        1.0
      ],
      "min": [
        -1.0,
        -1.0,
        -0.2559715807437897,
        1.0
      ],
      "type": "VEC4"
    },
    {
      "bufferView": 1,
      "byteOffset": 2384,
      "componentType": 5126,
      "count": 621,
      "max": [
        0.9837201237678528,
        0.9946092963218689
      ],
      "min": [
        0.492516428232193,
        0.0068717896938323975
      ],
      "type": "VEC2"
    },
    {
      "bufferView": 0,
      "byteOffset": 5760,
      "componentType": 5125,
      "count": 2970,
      "type": "SCALAR"
    },
    {
      "bufferView": 2,
      "byteOffset": 22056,
      "componentType": 5126,
      "count": 32,
      "max": [
        0.3687024414539337,
        0.3687025010585785,
        -13.051766395568848
      ],
      "min": [
        -0.36870241165161133,
        -0.3687024414539337,
        -13.05176830291748
      ],
      "type": "VEC3"
    },
    {
      "bufferView": 2,
      "byteOffset": 22440,
      "componentType": 5126,
      "count": 32,
      "max": [
        0.0,
        0.0,
        -1.0
      ],
      "min": [
        0.0,
        0.0,
        -1.0
      ],
      "type": "VEC3"
    },
    {
      "bufferView": 1,
      "byteOffset": 7352,
      "componentType": 5126,
      "count": 32,
      "max": [
        0.48561421036720276,
        0.4856142997741699
      ],
      "min": [
        0.014385842718183994,
        0.01438584178686142
      ],
      "type": "VEC2"
    },
    {
      "bufferView": 0,
      "byteOffset": 17640,
      "componentType": 5125,
      "count": 90,
      "type": "SCALAR"
    },
    {
      "bufferView": 2,
      "byteOffset": 22824,
      "componentType": 5126,
      "count": 1443,
      "max": [
        0.30233293771743774,
        0.30233293771743774,
        1.924411654472351
      ],
      "min": [
        -0.30233290791511536,
        -0.30233290791511536,
        -1.8935174942016602
      ],
      "type": "VEC3"
    },
    {
      "bufferView": 2,
      "byteOffset": 40140,
      "componentType": 5126,
      "count": 1443,
      "max": [
        0.999890923500061,
        0.999890923500061,
        1.0
      ],
      "min": [
        -0.999890923500061,
        -0.999890923500061,
        -0.9999969005584717
      ],
      "type": "VEC3"
    },
    {
      "bufferView": 3,
      "byteOffset": 14704,
      "componentType": 5126,
      "count": 1443,
      "max": [
        0.999996542930603,
        0.9997464418411255,
        0.9998909831047058,
        1.0
      ],
      "min": [
        -0.9997451305389404,
        -0.9997456669807434,
        -0.9604473114013672,
        1.0
      ],
      "type": "VEC4"
    },
    {
      "bufferView": 1,
      "byteOffset": 7608,
      "componentType": 5126,
      "count": 1443,
      "max": [
        0.9891692996025085,
        0.6637289524078369
      ],
      "min": [
        0.0019104441162198782,
        0.006976027507334948
      ],
      "type": "VEC2"
    },
    {
      "bufferView": 0,
      "byteOffset": 18000,
      "componentType": 5125,
      "count": 5760,
      "type": "SCALAR"
    },
    {
      "bufferView": 2,
      "byteOffset": 57456,
      "componentType": 5126,
      "count": 2974,
      "max": [
        0.3543425500392914,
        0.3458693325519562,
        1.5554747581481934
      ],
      "min": [
        -0.3076246678829193,
        -0.2532525658607483,
        -1.0862756967544556
      ],
      "type": "VEC3"
    },
    {
      "bufferView": 2,
      "byteOffset": 93144,
      "componentType": 5126,
      "count": 2974,
      "max": [
        0.9989238381385803,
        0.9994446039199829,
        0.8803638815879822
      ],
      "min": [
        -0.9982033371925354,
        -0.999153733253479,
        -0.7361243367195129
      ],
      "type": "VEC3"
    },
    {
      "bufferView": 1,
      "byteOffset": 19152,
      "componentType": 5126,
      "count": 2974,
      "max": [
        1.0,
        0.4723820686340332
      ],
      "min": [
        0.0,
        0.0
      ],
      "type": "VEC2"
    },
    {
      "bufferView": 0,
      "byteOffset": 41040,
      "componentType": 5125,
      "count": 5760,
      "type": "SCALAR"
    }
  ],
  "asset": {
    "extras": {
      "author": "MushyDay (https://sketchfab.com/MushyDay)",
      "license": "CC-BY-4.0 (http://creativecommons.org/licenses/by/4.0/)",
      "source": "https://sketchfab.com/3d-models/paint-brush-6a43d21e94d244898414b86c5e1a90a7",
      "title": "Paint Brush"
    },
    "generator": "Sketchfab-12.67.0",
    "version": "2.0"
  },
  "bufferViews": [
    {
      "buffer": 0,
      "byteLength": 64080,
      "name": "floatBufferViews",
      "target": 34963
    },
    {
      "buffer": 0,
      "byteLength": 42944,
      "byteOffset": 64080,
      "byteStride": 8,
      "name": "floatBufferViews",
      "target": 34962
    },
    {
      "buffer": 0,
      "byteLength": 128832,
      "byteOffset": 107024,
      "byteStride": 12,
      "name": "floatBufferViews",
      "target": 34962
    },
    {
      "buffer": 0,
      "byteLength": 37792,
      "byteOffset": 235856,
      "byteStride": 16,
      "name": "floatBufferViews",
      "target": 34962
    }
  ],
  "buffers": [
    {
      "byteLength": 273648,
      "uri": "scene.bin"
    }
  ],
  "images": [
    {
      "uri": "textures/PencilWood_baseColor.jpeg"
    },
    {
      "uri": "textures/PencilWood_metallicRoughness.png"
    },
    {
      "uri": "textures/PencilWood_normal.jpeg"
    },
    {
      "uri": "textures/Pencil.strand_baseColor.jpeg"
    },
    {
      "uri": "textures/Pencil.strand_normal.jpeg"
    }
  ],
  "materials": [
    {
      "doubleSided": true,
      "name": "PencilWood",
      "normalTexture": {
        "index": 2
      },
      "pbrMetallicRoughness": {
        "baseColorTexture": {
          "index": 0
        },
        "metallicFactor": 0.0,
        "metallicRoughnessTexture": {
          "index": 1
        }
      }
    },
    {
      "doubleSided": true,
      "name": "PencilMetal",
      "normalTexture": {
        "index": 2
      },
      "pbrMetallicRoughness": {
        "baseColorTexture": {
          "index": 0
        },
        "metallicRoughnessTexture": {
          "index": 1
        }
      }
    },
    {
      "doubleSided": true,
      "name": "Pencil.strand.001",
      "pbrMetallicRoughness": {
        "metallicFactor": 0.0,
        "roughnessFactor": 0.5
      }
    },
    {
      "doubleSided": true,
      "name": "Pencil.strand",
      "normalTexture": {
        "index": 4
      },
      "pbrMetallicRoughness": {
        "baseColorTexture": {
          "index": 3
        },
        "metallicFactor": 0.0,
        "roughnessFactor": 0.7
      }
    },
    {
      "doubleSided": true,
      "name": "PaintDetails",
      "pbrMetallicRoughness": {
        "baseColorFactor": [
          0.33638951952947194,
          0.14236112311808097,
          0.07026209341152558,
          1.0
        ],
        "metallicFactor": 0.0,
        "roughnessFactor": 0.5185247675853808
      }
    }
  ],
  "meshes": [
    {
      "name": "Object_0",
      "primitives": [
        {
          "attributes": {
            "NORMAL": 1,
            "POSITION": 0,
            "TANGENT": 2,
            "TEXCOORD_0": 3
          },
          "indices": 4,
          "material": 0,
          "mode": 4
        }
      ]
    },
    {
      "name": "Object_1",
      "primitives": [
        {
          "attributes": {
            "NORMAL": 6,
            "POSITION": 5,
            "TANGENT": 7,
            "TEXCOORD_0": 8
          },
          "indices": 9,
          "material": 1,
          "mode": 4
        }
      ]
    },
    {
      "name": "Object_2",
      "primitives": [
        {
          "attributes": {
            "NORMAL": 11,
            "POSITION": 10,
            "TEXCOORD_0": 12
          },
          "indices": 13,
          "material": 2,
          "mode": 4
        }
      ]
    },
    {
      "name": "Object_3",
      "primitives": [
        {
          "attributes": {
            "NORMAL": 15,
            "POSITION": 14,
            "TANGENT": 16,
            "TEXCOORD_0": 17
          },
          "indices": 18,
          "material": 3,
          "mode": 4
        }
      ]
    },
    {
      "name": "Object_4",
      "primitives": [
        {
          "attributes": {
            "NORMAL": 20,
            "POSITION": 19,
            "TEXCOORD_0": 21
          },
          "indices": 22,
          "material": 4,
          "mode": 4
        }
      ]
    }
  ],
  "nodes": [
    {
      "children": [
        1
      ],
      "matrix": [
        1.0,
        0.0,
        0.0,
        0.0,
        0.0,
        2.220446049250313e-16,
        -1.0,
        0.0,
        0.0,
        1.0,
        2.220446049250313e-16,
        0.0,
        0.0,
        0.0,
        0.0,
        1.0
      ],
      "name": "Sketchfab_model"
    },
    {
      "children": [
        2
      ],
      "name": "root"
    },
    {
      "children": [
        3
      ],
      "matrix": [
        1.0,
        0.0,
        0.0,
        0.0,
        0.0,
        2.220446049250313e-16,
        1.0,
        0.0,
        0.0,
        -1.0,
        2.220446049250313e-16,
        0.0,
        0.0,
        0.0,
        0.0,
        1.0
      ],
      "name": "GLTF_SceneRootNode"
    },
    {
      "children": [
        4,
        7,
        9,
        11
      ],
      "name": "Empty.001_4"
    },
    {
      "children": [
        5,
        6
      ],
      "matrix": [
        1.0,
        0.0,
        0.0,
        0.0,
        0.0,
        1.0,
        0.0,
        0.0,
        0.0,
        0.0,
        1.0,
        0.0,
        0.0,
        0.4558950662612915,
        11.363594055175781,
        1.0
      ],
      "name": "Cylinder.003_0"
    },
    {
      "mesh": 0,
      "name": "Object_5"
    },
    {
      "mesh": 1,
      "name": "Object_6"
    },
    {
      "children": [
        8
      ],
      "matrix": [
        1.0118480920791626,
        0.0,
        0.0,
        0.0,
        0.0,
        1.0118480920791626,
        0.0,
        0.0,
        0.0,
        0.0,
        1.0,
        0.0,
        0.0,
        0.4558950662612915,
        11.363594055175781,
        1.0
      ],
      "name": "Cylinder.004_1"
    },
    {
      "mesh": 2,
      "name": "Object_8"
    },
    {
      "children": [
        10
      ],
      "matrix": [
        1.2754474878311157,
        0.0,
        0.0,
        0.0,
        0.0,
        1.2754474878311157,
        0.0,
        0.0,
        0.0,
        0.0,
        1.0,
        0.0,
        0.0,
        0.4558950662612915,
        -3.58832049369812,
        1.0
      ],
      "name": "Cylinder.005_2"
    },
    {
      "mesh": 3,
      "name": "Object_10"
    },
    {
      "children": [
        12
      ],
      "matrix": [
        1.0,
        0.0,
        0.0,
        0.0,
        0.0,
        1.0,
        0.0,
        0.0,
        0.0,
        0.0,
        1.0,
        0.0,
        0.0,
        0.4558950662612915,
        -4.208017349243164,
        1.0
      ],
      "name": "Icosphere.001_3"
    },
    {
      "mesh": 4,
      "name": "Object_12"
    }
  ],
  "samplers": [
    {
      "magFilter": 9729,
      "minFilter": 9987,
      "wrapS": 10497,
      "wrapT": 10497
    }
  ],
  "scene": 0,
  "scenes": [
    {
      "name": "Sketchfab_Scene",
      "nodes": [
        0
      ]
    }
  ],
  "textures": [
    {
      "sampler": 0,
      "source": 0
    },
    {
      "sampler": 0,
      "source": 1
    },
    {
      "sampler": 0,
      "source": 2
    },
    {
      "sampler": 0,
      "source": 3
    },
    {
      "sampler": 0,
      "source": 4
    }
  ]
}
